# xmcd
# Copyright (C) 1995-1998 Ti Kan
#
# Track frame offsets:
#       150
#       13197
#       24472
#       36430
#
# Disc length: 679 seconds
#
# Revision: 0
# Processed by: cddbd v1.5.2PL0 Copyright (c) Steve Scherf et al.
# Submitted via: CD-Import v1.0
#
DISCID=2b02a504
DTITLE=Lied Der Woche - Lied Der Woche
DYEAR=1900
DGENRE=
TTITLE0=My Girl Sloopy
TTITLE1=Hang On Sloopy
TTITLE2=Hang On Sloopy
TTITLE3=Hang On Sloopy
EXTD=
EXTT0=
EXTT1=
EXTT2=
EXTT3=
PLAYORDER=
